# xmcd CD database file
#
# Track frame offsets:
#	150
#	26003
#	57248
#	85415
#	118654
#	146645
#	176764
#	199523
#	228951
#	252314
#	279654
#
# Disc length: 4086 seconds
#
# Revision: 0
# Processed by: cddbd v1.5.2PL0 Copyright (c) Steve Scherf et al.
# Submitted via: CDex 1.51
#
DISCID=9c0ff40b
DTITLE=Hones Talk - Summer Mood
DYEAR=2012
DGENRE=Jazz
TTITLE0=Watermelon Man (Herbie Hancock)
TTITLE1=Summertime (George Gershwin)
TTITLE2=Moanin (Charles Mingus)
TTITLE3=Chameleon(Herbie Hancock)
TTITLE4=Take Five  (Paul Desmond)
TTITLE5=In A Sentimental Mood (Duke Ellington)
TTITLE6=Blue Bossa (Kenny Dorham)
TTITLE7=Cantaloupe Island (Herbie Hancock)
TTITLE8=Autumn Leaves (Joseph Kosma)
TTITLE9=Sunny (Bobby Herb)
TTITLE10=Killing Me Softly With His Song (Charles Fox)
EXTD=YEAR: 2012
EXTT0=
EXTT1=
EXTT2=
EXTT3=
EXTT4=
EXTT5=
EXTT6=
EXTT7=
EXTT8=
EXTT9=
EXTT10=
PLAYORDER=
